<?xml version="1.0" encoding="UTF-8" standalone="no"?>
<!-- Created with Inkscape (http://www.inkscape.org/) -->

<svg
   version="1.1"
   id="svg1"
   width="778.66669"
   height="569.33331"
   viewBox="0 0 778.66669 569.33331"
   xmlns="http://www.w3.org/2000/svg"
   xmlns:svg="http://www.w3.org/2000/svg">
  <defs
     id="defs1" />
  <path
     style="fill:#000000"
     d="m 290.66667,548.70136 c -15.43605,-3.40659 -31.18062,-13.91481 -42.76821,-28.54432 -10.6555,-13.45273 -18.07173,-34.69197 -21.29863,-60.9969 -1.88218,-15.34305 -1.12323,-47.77846 1.22042,-52.15762 0.83057,-1.55192 7.81079,-7.44474 15.5116,-13.09516 12.90873,-9.47168 16.78862,-13.90737 12.16475,-13.90737 -1.01021,0 -2.58367,0.9 -3.49659,2 -0.91292,1.1 -2.44353,2 -3.40136,2 -0.95782,0 -2.53662,0.75 -3.50843,1.66666 -3.76438,3.55078 -22.57554,13.12544 -36.42355,18.53916 -6.03213,2.35819 -10.78781,5.78716 -19.33333,13.93983 -13.59207,12.96722 -15.14399,13.85434 -24.23658,13.85434 h -7.07856 l -26.83474,-26.99999 c -21.59249,-21.72547 -28.04092,-29.07832 -33.009099,-37.63879 -6.330877,-10.90848 -7.910845,-18.42473 -4.574359,-21.76121 3.915767,-3.91577 15.345078,-0.38118 30.860158,9.54369 4.04678,2.5887 9.94874,5.88236 13.11548,7.31927 7.7657,3.52368 26.40786,9.53704 29.56602,9.53704 1.40193,0 4.8375,0.68566 7.6346,1.52369 7.69281,2.30482 11.75306,-0.14336 24.22252,-14.60529 19.08869,-22.13885 23.61073,-26.55777 34.77801,-33.98493 12.60942,-8.38632 21.20266,-11.60014 31.01686,-11.60014 13.74944,0 25.15764,8.16877 32.58646,23.33333 5.14339,10.49927 10.64978,25.32829 11.88241,32 0.54195,2.93334 1.63418,7.73334 2.42716,10.66667 2.48088,9.17698 4.43455,19.60391 5.74594,30.66667 0.69544,5.86666 2.00693,16.91737 2.91441,24.55712 0.90749,7.63974 2.31232,14.11053 3.12185,14.37951 3.75043,1.24615 3.31413,-30.6097 -0.88761,-64.80714 -0.75712,-6.16211 -0.89831,-11.67434 -0.31376,-12.2494 0.58456,-0.57506 5.24612,-0.16462 10.35903,0.91209 7.65212,1.61143 11.66083,1.68965 22.66667,0.44226 30.10237,-3.41176 77.89291,-18.84434 79.13214,-25.55344 0.36032,-1.95073 -0.27491,-2.18716 -4,-1.4888 -2.43559,0.45662 -7.72834,2.3292 -11.76167,4.16129 -8.41295,3.82147 -33.19678,10.19888 -48.26963,12.42079 -5.6483,0.83262 -14.9483,1.28964 -20.66667,1.0156 -28.27928,-1.35526 -34.97485,-15.02994 -39.72054,-81.12321 -2.78194,-38.74414 -5.02159,-49.48484 -14.22567,-68.22208 -4.04234,-8.22921 -5.06695,-11.88264 -5.2556,-18.7397 -0.12888,-4.6847 0.45753,-9.81038 1.30313,-11.3904 4.62351,-8.63911 26.13371,-16.43243 37.04182,-13.42056 3.80379,1.05028 4.65883,2.1241 6.42383,8.06748 1.11979,3.77076 2.03599,7.98647 2.03599,9.36825 0,5.9688 6.16185,10.3899 8.7175,6.25477 1.59653,-2.58325 7.4534,-4.10245 9.44468,-2.44983 2.13026,1.76796 2.45879,7.32424 0.50449,8.53207 -0.73333,0.45322 -1.33333,1.65856 -1.33333,2.67851 0,1.01996 -1.92003,4.6994 -4.26672,8.17654 -3.26402,4.83636 -4.39874,8.14732 -4.82852,14.08893 -0.76591,10.58858 2.86024,40.19197 6.41722,52.38935 0.64156,2.2 1.82243,6.523 2.62415,9.60666 1.85283,7.12659 4.71923,10.17798 7.94114,8.45367 4.89323,-2.61878 45.93349,-16.27504 62.11273,-20.66819 3.66666,-0.99561 10.0194,-2.76613 14.11719,-3.9345 4.09779,-1.16837 9.03564,-2.12431 10.97302,-2.12431 5.18963,0 14.24312,-3.98539 14.24312,-6.26989 0,-1.60695 -1.31983,-1.82168 -7,-1.13884 -8.53682,1.02625 -23.49738,4.23194 -31.84562,6.82374 -14.7965,4.59374 -27.33237,1.48646 -33.04167,-8.19008 -1.58375,-2.68426 -4.75086,-5.51807 -7.40777,-6.62819 -2.56192,-1.07044 -5.54807,-3.69293 -6.66545,-5.85371 -1.11334,-2.15296 -3.19947,-4.73763 -4.63584,-5.7437 -3.05956,-2.143 -5.40365,-7.68367 -5.40365,-12.77248 0,-2.51581 -1.80647,-5.35026 -6,-9.41432 -3.3,-3.19811 -6,-6.87373 -6,-8.16805 0,-1.29431 2.10079,-5.26881 4.66842,-8.83222 2.56763,-3.56341 5.32561,-7.97892 6.12883,-9.81225 1.68846,-3.85387 0.4659,-28.95832 -1.68073,-34.51269 -2.06103,-5.33285 -1.96407,-37.16982 0.13243,-43.48731 5.67478,-17.100083 7.83454,-21.984265 13.68286,-30.942994 18.99815,-29.102231 48.54094,-48.275466 81.05468,-52.604375 9.41988,-1.25417 14.28213,-1.235079 22.98065,0.09023 14.93792,2.275949 35.56054,9.970132 48.3662,18.045158 26.27913,16.571164 38.36396,30.62275 49.3762,57.411981 7.88864,19.1905 9.11628,46.47713 3.35931,74.66666 -0.74882,3.66667 -7.97565,19.86667 -16.05962,36 -16.31732,32.56479 -18.93419,39.29833 -22.79976,58.66667 -2.29867,11.51743 -2.61463,17.78229 -2.31996,46 0.33678,32.24966 0.29648,32.79431 -3.15719,42.66666 -3.03329,8.67072 -7.90409,20.23228 -13.48136,32 -24.20646,51.0743 -86.30581,109.87768 -141.01847,133.53382 -38.38385,16.59604 -71.70329,22.87977 -94.56583,17.83422 z M 184,345.09637 c -16.80839,-7.8614 -46.76491,-31.63156 -58.31617,-46.27323 -11.0769,-14.0404 -19.45338,-19.45626 -40.350494,-26.08884 -9.979453,-3.16741 -17.340256,-10.25512 -17.31393,-16.67157 0.02101,-5.11953 2.522557,-13.21101 6.772598,-21.90655 1.475685,-3.01924 4.513049,-9.98952 6.749699,-15.48952 2.236649,-5.5 4.828721,-11.8 5.76016,-14 0.931438,-2.2 2.792498,-7 4.135689,-10.66667 3.512615,-9.5888 13.192098,-25.10591 18.650458,-29.89841 4.45898,-3.91503 4.86961,-4.01961 8.47083,-2.15735 2.08157,1.07643 4.17849,2.9834 4.65982,4.23771 0.48133,1.25432 0.1387,12.03341 -0.76139,23.95353 -1.76317,23.35019 -0.43167,43.89143 3.4468,53.17391 1.74607,4.17892 9.36648,10.28133 20.09593,16.09278 1.46667,0.7944 12.56667,6.87244 24.66667,13.50676 24.34965,13.35068 52.89764,28.76939 63.66667,34.38621 3.85,2.00805 6.98452,4.33812 6.9656,5.17793 -0.0189,0.83981 -2.56892,2.66397 -5.66666,4.05368 -3.09775,1.38971 -7.54224,3.93971 -9.87664,5.66666 -2.33441,1.72696 -4.85459,3.13992 -5.60042,3.13992 -0.74582,0 -1.83585,0.75 -2.42229,1.66667 -0.58644,0.91666 -3.76626,3.75251 -7.06626,6.30188 -3.3,2.54937 -8.04842,6.89937 -10.55206,9.66667 -5.20578,5.75401 -7.66672,6.07897 -16.11461,2.12783 z"
     id="path1" />
  <path
     style="fill:#a47878;fill-opacity:1;stroke-width:0;stroke-linecap:round;stroke-linejoin:round;paint-order:stroke fill markers"
     d="m 290.26207,547.92246 c -11.85964,-2.87128 -23.17094,-9.69753 -34.07949,-20.56664 -14.49963,-14.44721 -21.0183,-27.65379 -26.84264,-54.38214 -2.10993,-9.68263 -2.42768,-14.42507 -2.46203,-36.74584 -0.0293,-19.0269 0.32403,-26.26501 1.37163,-28.09989 0.77608,-1.35932 6.1744,-6.21938 11.99627,-10.80012 13.08894,-10.29861 17.6739,-14.5499 17.6739,-16.3877 0,-2.12565 -3.69476,-1.7156 -6.841,0.75923 -1.52508,1.19962 -3.24272,2.18114 -3.817,2.18114 -0.57427,0 -2.21451,0.90122 -3.64497,2.00272 -3.36333,2.58983 -14.43427,8.37121 -31.50095,16.45016 -11.83646,5.60308 -14.98598,7.6951 -23.91015,15.88189 -12.04659,11.0512 -14.72749,12.61402 -22.88854,13.34282 l -6.09394,0.54421 -26.20764,-26.56468 C 105.23231,377.3759 96.867584,366.82238 93.703742,355.93914 c -1.606129,-5.52489 -1.598506,-6.17606 0.102689,-8.77241 1.603215,-2.44681 2.3919,-2.73018 6.18338,-2.22164 4.508929,0.60477 15.848679,5.87649 30.878539,14.35508 9.73321,5.49065 27.00552,11.54097 40.59329,14.21942 8.3666,1.64925 9.2285,1.64336 12.87701,-0.088 2.15063,-1.02054 7.93071,-6.31967 12.84462,-11.77583 26.76473,-29.71826 39.66576,-40.37479 55.09435,-45.5091 13.71307,-4.56341 28.0606,-0.93047 36.94014,9.3536 12.18832,14.11622 22.88155,48.46646 28.18883,90.55201 3.37172,26.73692 4.65753,33.51053 6.2598,32.97645 0.67272,-0.22425 1.6731,-2.09199 2.22307,-4.15054 1.27737,-4.78133 0.22365,-32.54944 -2.07911,-54.78973 -0.98173,-9.48161 -1.53409,-17.49016 -1.22747,-17.79677 0.30662,-0.30662 3.39483,-0.033 6.86267,0.60808 13.8627,2.56266 30.98312,1.08916 55.52552,-4.77891 24.85299,-5.94233 49.62091,-16.107 49.62091,-20.36427 0,-3.06678 -4.0757,-2.60966 -15.26656,1.71225 -11.40903,4.40617 -35.9533,10.75089 -48.90907,12.64305 -5.00604,0.73111 -13.9236,1.09711 -19.81683,0.81333 -29.09522,-1.40103 -34.94118,-13.61601 -40.33767,-84.28471 -2.44719,-32.04652 -5.17268,-45.33842 -12.65694,-61.72613 -8.3501,-18.28358 -8.81322,-28.96288 -1.55809,-35.92867 5.42738,-5.21095 15.01811,-8.82194 25.19248,-9.48517 6.62191,-0.43167 8.59035,-0.19298 9.99527,1.21193 1.87856,1.87856 4.6011,9.60841 5.70359,16.19363 1.21329,7.24711 5.86487,9.41286 11.20124,5.21527 3.77324,-2.96803 6.67198,-2.76767 7.93272,0.5483 0.87121,2.29147 0.0794,4.58177 -4.93456,14.2728 -5.91218,11.42718 -5.97228,11.64014 -5.97228,21.16303 0,13.0279 2.81906,33.91407 6.60463,48.93309 3.25925,12.93087 5.4206,17.59632 8.15181,17.59632 0.89062,0 12.2894,-3.61715 25.33059,-8.03811 26.75848,-9.07111 51.30439,-16.23337 63.71439,-18.59125 4.60713,-0.87534 9.88276,-2.3704 11.72363,-3.32235 3.29716,-1.70503 4.3477,-4.19935 2.30133,-5.46407 -1.51561,-0.9367 -19.24768,2.13055 -34.37744,5.94653 -14.2976,3.60609 -17.48313,3.88188 -24.0129,2.07895 -4.25917,-1.17601 -5.36116,-2.12431 -25.47957,-21.92619 -7.39757,-7.28118 -9.7177,-11.00458 -10.62429,-17.05012 -0.55239,-3.68361 -1.97438,-6.20243 -6.02939,-10.68013 -2.9186,-3.2228 -5.30653,-6.73335 -5.30653,-7.80121 0,-1.06788 2.45378,-5.82747 5.45285,-10.57689 l 5.45285,-8.63532 -0.0796,-10.40502 c -0.0438,-5.72278 -0.52214,-13.1042 -1.063,-16.40317 -4.49272,-27.4035 -3.65931,-44.54078 2.9974,-61.63543 13.38794,-34.380654 42.51802,-59.860677 79.93794,-69.921558 10.78921,-2.900834 31.78183,-2.714674 43.14652,0.38262 27.74356,7.56114 54.55548,23.981217 69.97751,42.855435 7.68772,9.408605 18.10026,30.567063 21.19091,43.060293 2.01169,8.13178 2.42213,12.80774 2.3932,27.26424 -0.0561,28.04071 -2.18116,35.84606 -18.76766,68.93404 -13.63236,27.19485 -18.3763,38.91299 -22.20354,54.84561 -1.92837,8.0277 -2.32691,14.45759 -2.97427,47.98506 l -0.74753,38.71522 -3.42092,8.92393 c -10.3927,27.11086 -20.19262,45.55773 -34.11363,64.21372 -30.77712,41.24544 -71.69098,75.72514 -113.91664,96.00196 -37.54007,18.02681 -77.05188,26.12576 -100.16184,20.53074 z"
     id="path5" />
  <path
     style="fill:#a47878;fill-opacity:1;stroke-width:0;stroke-linecap:round;stroke-linejoin:round;paint-order:stroke fill markers"
     d="m 180.48927,342.31808 c -18.61945,-10.13545 -39.45666,-27.20499 -55.94343,-45.82803 -10.33535,-11.67455 -16.95121,-16.1237 -33.068652,-22.23857 -14.221691,-5.39564 -18.905468,-8.45623 -21.58615,-14.10535 -1.693859,-3.56954 -1.709831,-4.43499 -0.191246,-10.36261 0.911334,-3.55728 3.185905,-9.8071 5.054603,-13.88849 1.868697,-4.08138 7.296745,-16.96968 12.062325,-28.64066 9.028742,-22.11151 15.93693,-34.6392 22.99117,-41.69344 4.77797,-4.77797 6.0418,-5.01591 10.02019,-1.88651 l 2.88599,2.27012 -0.714,29.08376 c -0.73856,30.08445 0.0941,41.31901 3.62644,48.92866 3.12997,6.74284 11.39637,11.73249 85.39871,51.54712 14.69542,7.90642 27.41371,15.05212 28.26287,15.87935 1.32453,1.29034 1.03743,1.78279 -2.02048,3.46555 -15.65235,8.61348 -29.29832,18.68912 -38.71534,28.58587 -4.34913,4.57069 -8.03322,4.34292 -18.063,-1.11677 z"
     id="path6" />
</svg>
