<svg width="25" height="26" viewBox="0 0 25 26" fill="none" xmlns="http://www.w3.org/2000/svg">
<path d="M20.8333 8.76525L14.5833 3.28609C14.0104 2.77364 13.2687 2.49033 12.5 2.49033C11.7313 2.49033 10.9896 2.77364 10.4167 3.28609L4.16667 8.76525C3.8358 9.06116 3.57177 9.42417 3.39216 9.83009C3.21255 10.236 3.12147 10.6755 3.125 11.1194V20.2236C3.125 21.0524 3.45424 21.8472 4.04029 22.4333C4.62634 23.0193 5.4212 23.3486 6.25 23.3486H18.75C19.5788 23.3486 20.3737 23.0193 20.9597 22.4333C21.5458 21.8472 21.875 21.0524 21.875 20.2236V11.109C21.8771 10.6669 21.7853 10.2294 21.6057 9.82534C21.4261 9.42132 21.1629 9.06 20.8333 8.76525ZM14.5833 21.2652H10.4167V16.0569C10.4167 15.7806 10.5264 15.5157 10.7218 15.3203C10.9171 15.125 11.1821 15.0153 11.4583 15.0153H13.5417C13.8179 15.0153 14.0829 15.125 14.2782 15.3203C14.4736 15.5157 14.5833 15.7806 14.5833 16.0569V21.2652ZM19.7917 20.2236C19.7917 20.4998 19.6819 20.7648 19.4866 20.9602C19.2912 21.1555 19.0263 21.2652 18.75 21.2652H16.6667V16.0569C16.6667 15.2281 16.3374 14.4333 15.7514 13.8472C15.1653 13.2612 14.3705 12.9319 13.5417 12.9319H11.4583C10.6295 12.9319 9.83468 13.2612 9.24863 13.8472C8.66257 14.4333 8.33333 15.2281 8.33333 16.0569V21.2652H6.25C5.97373 21.2652 5.70878 21.1555 5.51343 20.9602C5.31808 20.7648 5.20833 20.4998 5.20833 20.2236V11.109C5.20852 10.9611 5.2402 10.8149 5.30127 10.6802C5.36233 10.5455 5.45139 10.4254 5.5625 10.3278L11.8125 4.859C12.0026 4.692 12.247 4.59991 12.5 4.59991C12.753 4.59991 12.9974 4.692 13.1875 4.859L19.4375 10.3278C19.5486 10.4254 19.6377 10.5455 19.6987 10.6802C19.7598 10.8149 19.7915 10.9611 19.7917 11.109V20.2236Z" fill="white"/>
</svg>
