<svg width="32" height="32" viewBox="0 0 32 32" fill="none" xmlns="http://www.w3.org/2000/svg">
<g clip-path="url(#clip0_11_100)">
<path d="M12 7.99999H10.6667V6.19999L12 6.03999V7.99999ZM12 16H10.6667V9.33332H12V16ZM8 9.33332H9.33333V16H8V9.33332ZM8 6.50666L9.33333 6.34666V7.99999H8V6.50666ZM29.3333 3.99999V2.66666L6.66667 5.33332V16H2.66667C2.66667 20.92 5.96 25.1467 10.6667 27V29.3333H21.3333V27C26.04 25.1467 29.3333 20.92 29.3333 16H13.3333V9.33332H29.3333V7.99999H13.3333V5.87999L29.3333 3.99999Z" fill="#AD6666"/>
</g>
<defs>
<clipPath id="clip0_11_100">
<rect width="32" height="32" fill="white"/>
</clipPath>
</defs>
</svg>
