<svg width="25" height="24" viewBox="0 0 25 24" fill="none" xmlns="http://www.w3.org/2000/svg">
<path d="M12.5 6.39503C14.0341 6.39503 15.2778 5.14492 15.2778 3.60283C15.2778 2.06075 14.0341 0.810638 12.5 0.810638C10.9659 0.810638 9.72222 2.06075 9.72222 3.60283C9.72222 5.14492 10.9659 6.39503 12.5 6.39503Z" fill="#989898"/>
<path d="M25 17.5638V14.7716C21.8889 14.7716 19.2222 13.4314 17.2222 11.0301L15.3611 8.79633C14.8333 8.15412 14.0556 7.79114 13.2361 7.79114H11.7778C10.9583 7.79114 10.1806 8.15412 9.65278 8.79633L7.79167 11.0301C5.77778 13.4314 3.11111 14.7716 0 14.7716V17.5638C3.84722 17.5638 7.20833 15.9304 9.72222 13.0265V16.1677L4.33333 18.3317C3.40278 18.7086 2.77778 19.63 2.77778 20.6492C2.77778 22.0313 3.88889 23.1482 5.26389 23.1482H8.33333V22.4502C8.33333 20.5235 9.88889 18.9599 11.8056 18.9599H15.9722C16.3611 18.9599 16.6667 19.2671 16.6667 19.658C16.6667 20.0489 16.3611 20.356 15.9722 20.356H11.8056C10.6528 20.356 9.72222 21.2914 9.72222 22.4502V23.1482H19.7361C21.1111 23.1482 22.2222 22.0313 22.2222 20.6492C22.2222 19.63 21.5972 18.7086 20.6667 18.3317L15.2778 16.1677V13.0265C17.7917 15.9304 21.1528 17.5638 25 17.5638Z" fill="#989898"/>
</svg>
