<svg width="32" height="32" viewBox="0 0 32 32" fill="none" xmlns="http://www.w3.org/2000/svg">
<g clip-path="url(#clip0_11_105)">
<path d="M14.6667 7.33332H10.6667V5.33332H11.3333C12.0667 5.33332 12.6667 4.73332 12.6667 3.99999C12.6667 3.26666 12.0667 2.66666 11.3333 2.66666H7.33333C6.6 2.66666 6 3.26666 6 3.99999C6 4.73332 6.6 5.33332 7.33333 5.33332H8V7.33332H4C3.26666 7.33332 2.66666 7.93332 2.66666 8.66666C2.66666 9.39999 3.26666 9.99999 4 9.99999V20C4 21.4667 5.2 22.6667 6.66666 22.6667H8V28L10.6667 30V22.6667H12C13.4667 22.6667 14.6667 21.4667 14.6667 20V9.99999C15.4 9.99999 16 9.39999 16 8.66666C16 7.93332 15.4 7.33332 14.6667 7.33332ZM12 12H9.66666C9.12 12 8.66666 12.4533 8.66666 13C8.66666 13.5467 9.12 14 9.66666 14H12V16H9.66666C9.12 16 8.66666 16.4533 8.66666 17C8.66666 17.5467 9.12 18 9.66666 18H12V20H6.66666V9.99999H12V12ZM26 14V13.3333C26.7333 13.3333 27.3333 12.7333 27.3333 12C27.3333 11.2667 26.7333 10.6667 26 10.6667H19.3333C18.6 10.6667 18 11.2667 18 12C18 12.7333 18.6 13.3333 19.3333 13.3333V14C19.3333 14.6667 17.3333 15.5467 17.3333 18V26.6667C17.3333 28.1333 18.5333 29.3333 20 29.3333H25.3333C26.8 29.3333 28 28.1333 28 26.6667V18C28 15.5467 26 14.6667 26 14ZM22 14V13.3333H23.3333V14C23.3333 16.1333 25.3333 16.6667 25.3333 18V18.6667H20C20 18.3867 20 18.1467 20 18C20 16.6667 22 16.1333 22 14ZM20 26.6667C20 26.6667 20 25.8267 20 24.6667H25.3333V26.6667H20Z" fill="#AD6666"/>
</g>
<defs>
<clipPath id="clip0_11_105">
<rect width="32" height="32" fill="white"/>
</clipPath>
</defs>
</svg>
