<?xml version="1.0" encoding="UTF-8" standalone="no"?>
<svg
   width="32"
   height="32"
   viewBox="0 0 32 32"
   fill="none"
   version="1.1"
   id="svg1"
   xml:space="preserve"
   xmlns="http://www.w3.org/2000/svg"
   xmlns:svg="http://www.w3.org/2000/svg"><defs
     id="defs1" /><g
     id="g2"
     transform="matrix(0.0578409,0,0,0.0571146,-2.9607676,-0.5993054)"><path
       style="display:inline;fill:#a47878;fill-opacity:1;stroke-width:0;stroke-linecap:round;stroke-linejoin:round;paint-order:stroke fill markers"
       d="m 290.26207,547.92246 c -11.85964,-2.87128 -23.17094,-9.69753 -34.07949,-20.56664 -14.49963,-14.44721 -21.0183,-27.65379 -26.84264,-54.38214 -2.10993,-9.68263 -2.42768,-14.42507 -2.46203,-36.74584 -0.0293,-19.0269 0.32403,-26.26501 1.37163,-28.09989 0.77608,-1.35932 6.1744,-6.21938 11.99627,-10.80012 13.08894,-10.29861 17.6739,-14.5499 17.6739,-16.3877 0,-2.12565 -3.69476,-1.7156 -6.841,0.75923 -1.52508,1.19962 -3.24272,2.18114 -3.817,2.18114 -0.57427,0 -2.21451,0.90122 -3.64497,2.00272 -3.36333,2.58983 -14.43427,8.37121 -31.50095,16.45016 -11.83646,5.60308 -14.98598,7.6951 -23.91015,15.88189 -12.04659,11.0512 -14.72749,12.61402 -22.88854,13.34282 l -6.09394,0.54421 -26.20764,-26.56468 C 105.23231,377.3759 96.867584,366.82238 93.703742,355.93914 c -1.606129,-5.52489 -1.598506,-6.17606 0.102689,-8.77241 1.603215,-2.44681 2.3919,-2.73018 6.18338,-2.22164 4.508929,0.60477 15.848679,5.87649 30.878539,14.35508 9.73321,5.49065 27.00552,11.54097 40.59329,14.21942 8.3666,1.64925 9.2285,1.64336 12.87701,-0.088 2.15063,-1.02054 7.93071,-6.31967 12.84462,-11.77583 26.76473,-29.71826 39.66576,-40.37479 55.09435,-45.5091 13.71307,-4.56341 28.0606,-0.93047 36.94014,9.3536 12.18832,14.11622 22.88155,48.46646 28.18883,90.55201 3.37172,26.73692 4.65753,33.51053 6.2598,32.97645 0.67272,-0.22425 1.6731,-2.09199 2.22307,-4.15054 1.27737,-4.78133 0.22365,-32.54944 -2.07911,-54.78973 -0.98173,-9.48161 -1.53409,-17.49016 -1.22747,-17.79677 0.30662,-0.30662 3.39483,-0.033 6.86267,0.60808 13.8627,2.56266 30.98312,1.08916 55.52552,-4.77891 24.85299,-5.94233 49.62091,-16.107 49.62091,-20.36427 0,-3.06678 -4.0757,-2.60966 -15.26656,1.71225 -11.40903,4.40617 -35.9533,10.75089 -48.90907,12.64305 -5.00604,0.73111 -13.9236,1.09711 -19.81683,0.81333 -29.09522,-1.40103 -34.94118,-13.61601 -40.33767,-84.28471 -2.44719,-32.04652 -5.17268,-45.33842 -12.65694,-61.72613 -8.3501,-18.28358 -8.81322,-28.96288 -1.55809,-35.92867 5.42738,-5.21095 15.01811,-8.82194 25.19248,-9.48517 6.62191,-0.43167 8.59035,-0.19298 9.99527,1.21193 1.87856,1.87856 4.6011,9.60841 5.70359,16.19363 1.21329,7.24711 5.86487,9.41286 11.20124,5.21527 3.77324,-2.96803 6.67198,-2.76767 7.93272,0.5483 0.87121,2.29147 0.0794,4.58177 -4.93456,14.2728 -5.91218,11.42718 -5.97228,11.64014 -5.97228,21.16303 0,13.0279 2.81906,33.91407 6.60463,48.93309 3.25925,12.93087 5.4206,17.59632 8.15181,17.59632 0.89062,0 12.2894,-3.61715 25.33059,-8.03811 26.75848,-9.07111 51.30439,-16.23337 63.71439,-18.59125 4.60713,-0.87534 9.88276,-2.3704 11.72363,-3.32235 3.29716,-1.70503 4.3477,-4.19935 2.30133,-5.46407 -1.51561,-0.9367 -19.24768,2.13055 -34.37744,5.94653 -14.2976,3.60609 -17.48313,3.88188 -24.0129,2.07895 -4.25917,-1.17601 -5.36116,-2.12431 -25.47957,-21.92619 -7.39757,-7.28118 -9.7177,-11.00458 -10.62429,-17.05012 -0.55239,-3.68361 -1.97438,-6.20243 -6.02939,-10.68013 -2.9186,-3.2228 -5.30653,-6.73335 -5.30653,-7.80121 0,-1.06788 2.45378,-5.82747 5.45285,-10.57689 l 5.45285,-8.63532 -0.0796,-10.40502 c -0.0438,-5.72278 -0.52214,-13.1042 -1.063,-16.40317 -4.49272,-27.4035 -3.65931,-44.54078 2.9974,-61.63543 13.38794,-34.380654 42.51802,-59.860677 79.93794,-69.921558 10.78921,-2.900834 31.78183,-2.714674 43.14652,0.38262 27.74356,7.56114 54.55548,23.981217 69.97751,42.855435 7.68772,9.408605 18.10026,30.567063 21.19091,43.060293 2.01169,8.13178 2.42213,12.80774 2.3932,27.26424 -0.0561,28.04071 -2.18116,35.84606 -18.76766,68.93404 -13.63236,27.19485 -18.3763,38.91299 -22.20354,54.84561 -1.92837,8.0277 -2.32691,14.45759 -2.97427,47.98506 l -0.74753,38.71522 -3.42092,8.92393 c -10.3927,27.11086 -20.19262,45.55773 -34.11363,64.21372 -30.77712,41.24544 -71.69098,75.72514 -113.91664,96.00196 -37.54007,18.02681 -77.05188,26.12576 -100.16184,20.53074 z"
       id="path5" /><path
       style="display:inline;fill:#ad6666;fill-opacity:1;stroke-width:0;stroke-linecap:round;stroke-linejoin:round;paint-order:stroke fill markers"
       d="m 14.443553,30.698188 c -0.365884,-0.04263 -0.550533,-0.100213 -0.930969,-0.290347 -0.796788,-0.398216 -1.671917,-1.325631 -2.057819,-2.180766 -0.269559,-0.597324 -0.5316,-1.583197 -0.628864,-2.365955 -0.05604,-0.451025 -0.05982,-2.71514 -0.005,-3.003977 0.03404,-0.179401 0.08457,-0.243698 0.457432,-0.582033 0.706334,-0.640932 1.113841,-1.056294 1.113841,-1.135309 0,-0.09829 -0.211787,-0.101414 -0.349212,-0.0052 -0.05514,0.03862 -0.14534,0.09487 -0.200449,0.124992 -0.05511,0.03013 -0.241376,0.147184 -0.413925,0.26013 -0.172549,0.112946 -0.696918,0.412015 -1.165266,0.664599 -0.9306153,0.50189 -0.9981877,0.549873 -1.6886975,1.19914 -0.5286669,0.497091 -0.6595087,0.574195 -1.0488099,0.618059 l -0.2725218,0.03071 -0.9634522,-1.069355 c -1.906485,-2.116049 -2.3733433,-2.765738 -2.4838015,-3.456505 -0.02114,-0.132203 -0.00567,-0.194621 0.073025,-0.294667 0.087497,-0.111235 0.1198605,-0.123292 0.2616603,-0.09749 0.1824208,0.0332 0.860776,0.364906 1.3151353,0.643085 0.682728,0.417997 1.4304681,0.734713 2.1878834,0.926708 0.6141102,0.155669 0.8028976,0.149295 1.0127146,-0.03419 0.227935,-0.199328 0.4751188,-0.468415 0.9160291,-0.997199 0.4964412,-0.595381 1.3427862,-1.460575 1.6768302,-1.714172 1.22414,-0.929337 2.423049,-0.685513 3.058386,0.621987 0.512285,1.054265 0.864733,2.502151 1.133184,4.65521 0.157109,1.260057 0.218862,1.652751 0.277453,1.764332 0.04088,0.07786 0.04906,0.07852 0.117985,0.0094 0.06474,-0.06488 0.07396,-0.207935 0.07333,-1.136881 -4.33e-4,-0.637602 -0.0346,-1.479661 -0.08542,-2.105164 -0.04658,-0.573374 -0.07344,-1.053752 -0.05969,-1.067508 0.01376,-0.01375 0.141613,-0.0035 0.284127,0.02289 0.420968,0.07782 1.294317,0.0581 1.88526,-0.04257 1.674231,-0.285209 3.758661,-1.119692 3.630578,-1.453471 -0.04486,-0.116902 -0.312679,-0.08094 -0.779285,0.104654 -0.525655,0.209075 -1.137901,0.400108 -1.894459,0.591109 -0.712751,0.179942 -1.766578,0.233713 -2.233923,0.113985 -0.995216,-0.254963 -1.268381,-1.05212 -1.529934,-4.464689 -0.162673,-2.12244 -0.255915,-2.641682 -0.676042,-3.764706 -0.433877,-1.159779 -0.450341,-1.594716 -0.07575,-2.0011018 0.317935,-0.3449187 0.981125,-0.5802339 1.53648,-0.5451787 0.215067,0.013575 0.226222,0.021066 0.318845,0.2141266 0.05279,0.110033 0.120428,0.3117136 0.150308,0.4481793 0.100472,0.4588776 0.156482,0.5982416 0.275931,0.6865746 0.129059,0.09544 0.134402,0.09412 0.522021,-0.129175 0.146068,-0.08414 0.148719,-0.08409 0.216083,0.0044 0.0972,0.127749 0.05894,0.29161 -0.200911,0.860397 -0.313523,0.686278 -0.338578,0.81058 -0.304906,1.512675 0.07838,1.634253 0.469881,3.456448 0.7544,3.511241 0.03843,0.0074 0.501208,-0.14099 1.028386,-0.329761 1.630798,-0.583951 2.630744,-0.911122 3.423491,-1.120127 0.419048,-0.110481 0.812325,-0.237799 0.87395,-0.28293 0.136415,-0.0999 0.171272,-0.263429 0.06486,-0.304264 -0.118196,-0.04536 -0.695063,0.05798 -1.687355,0.302259 -1.327342,0.326761 -1.337704,0.323639 -2.275771,-0.685581 -0.705164,-0.758652 -0.837705,-0.950462 -0.928579,-1.343817 -0.03403,-0.147322 -0.106455,-0.333708 -0.160934,-0.414192 -0.05448,-0.08048 -0.17821,-0.261273 -0.274958,-0.401755 L 17.530542,11.51371 17.63176,11.303074 c 0.05567,-0.115851 0.192416,-0.369685 0.303878,-0.564077 l 0.20266,-0.353439 -0.02995,-0.632555 c -0.01648,-0.347905 -0.0625,-0.8745716 -0.10227,-1.1703699 -0.103645,-0.7708393 -0.100818,-1.995097 0.0057,-2.487395 0.378277,-1.7475547 1.62017,-3.3773549 3.205076,-4.2061862 0.687783,-0.3596777 1.291035,-0.5423523 1.897213,-0.5745067 0.906663,-0.048094 1.621221,0.1097524 2.571238,0.567988 1.01421,0.4891983 2.098221,1.3780061 2.592499,2.1256551 0.421824,0.6380539 0.815459,1.5242787 1.016586,2.2887305 0.0983,0.3736251 0.106125,0.4876141 0.106125,1.5462185 0,1.7072932 -0.06372,1.9663784 -0.986612,4.0112047 -0.808767,1.791972 -1.127261,2.768201 -1.2063,3.697479 -0.01572,0.184874 -0.04719,1.233613 -0.06993,2.330532 l -0.04134,1.994398 -0.263249,0.717087 c -0.654553,1.782995 -1.213522,2.820724 -2.265439,4.2058 -1.225477,1.613605 -2.7058,3.011532 -4.270274,4.032589 -1.57244,1.026255 -3.372304,1.712243 -4.896005,1.866027 -0.506681,0.05114 -0.518342,0.05114 -0.957861,-6.6e-5 z"
       id="path2"
       transform="matrix(19.240589,0,0,17.560662,19.985491,9.6601304)" /><path
       style="display:inline;fill:#ad6666;fill-opacity:1;stroke-width:0;stroke-linecap:round;stroke-linejoin:round;paint-order:stroke fill markers"
       d="m 180.48927,342.31808 c -18.61945,-10.13545 -39.45666,-27.20499 -55.94343,-45.82803 -10.33535,-11.67455 -16.95121,-16.1237 -33.068652,-22.23857 -14.221691,-5.39564 -18.905468,-8.45623 -21.58615,-14.10535 -1.693859,-3.56954 -1.709831,-4.43499 -0.191246,-10.36261 0.911334,-3.55728 3.185905,-9.8071 5.054603,-13.88849 1.868697,-4.08138 7.296745,-16.96968 12.062325,-28.64066 9.028742,-22.11151 15.93693,-34.6392 22.99117,-41.69344 4.77797,-4.77797 6.0418,-5.01591 10.02019,-1.88651 l 2.88599,2.27012 -0.714,29.08376 c -0.73856,30.08445 0.0941,41.31901 3.62644,48.92866 3.12997,6.74284 11.39637,11.73249 85.39871,51.54712 14.69542,7.90642 27.41371,15.05212 28.26287,15.87935 1.32453,1.29034 1.03743,1.78279 -2.02048,3.46555 -15.65235,8.61348 -29.29832,18.68912 -38.71534,28.58587 -4.34913,4.57069 -8.03322,4.34292 -18.063,-1.11677 z"
       id="path6" /></g></svg>
