<svg width="25" height="26" viewBox="0 0 25 26" fill="none" xmlns="http://www.w3.org/2000/svg">
<path d="M8.86458 13.8106C8.65856 13.8106 8.45716 13.8717 8.28586 13.9862C8.11456 14.1007 7.98105 14.2633 7.90221 14.4537C7.82337 14.644 7.80274 14.8535 7.84293 15.0555C7.88312 15.2576 7.98233 15.4432 8.12801 15.5889C8.27369 15.7346 8.4593 15.8338 8.66136 15.874C8.86343 15.9142 9.07287 15.8935 9.26321 15.8147C9.45355 15.7358 9.61624 15.6023 9.7307 15.431C9.84516 15.2597 9.90625 15.0583 9.90625 14.8523C9.90625 14.576 9.7965 14.3111 9.60115 14.1157C9.4058 13.9204 9.14085 13.8106 8.86458 13.8106ZM8.86458 9.14397C8.65856 9.14397 8.45716 9.20506 8.28586 9.31952C8.11456 9.43398 7.98105 9.59667 7.90221 9.78701C7.82337 9.97735 7.80274 10.1868 7.84293 10.3889C7.88312 10.5909 7.98233 10.7765 8.12801 10.9222C8.27369 11.0679 8.4593 11.1671 8.66136 11.2073C8.86343 11.2475 9.07287 11.2269 9.26321 11.148C9.45355 11.0692 9.61624 10.9357 9.7307 10.7644C9.84516 10.5931 9.90625 10.3917 9.90625 10.1856C9.90625 9.90937 9.7965 9.64442 9.60115 9.44907C9.4058 9.25372 9.14085 9.14397 8.86458 9.14397ZM12.5 11.2273C12.2237 11.2273 11.9588 11.3371 11.7634 11.5324C11.5681 11.7278 11.4583 11.9927 11.4583 12.269V13.3106C11.4583 13.5869 11.5681 13.8519 11.7634 14.0472C11.9588 14.2426 12.2237 14.3523 12.5 14.3523C12.7763 14.3523 13.0412 14.2426 13.2366 14.0472C13.4319 13.8519 13.5417 13.5869 13.5417 13.3106V12.269C13.5417 11.9927 13.4319 11.7278 13.2366 11.5324C13.0412 11.3371 12.7763 11.2273 12.5 11.2273ZM21.3542 9.73772C20.9948 9.53096 20.5979 9.39778 20.1866 9.34591C19.7753 9.29405 19.3577 9.32455 18.9583 9.43564C18.5426 9.54699 18.1555 9.74587 17.8229 10.019L5.73958 3.02939C5.58123 2.93796 5.4016 2.88983 5.21875 2.88983C5.0359 2.88983 4.85627 2.93796 4.69791 3.02939C4.53701 3.11983 4.40303 3.25141 4.30969 3.41064C4.21634 3.56988 4.16698 3.75106 4.16666 3.93564V17.6544C3.55193 17.8617 3.01893 18.259 2.6445 18.7888C2.27008 19.3186 2.07358 19.9536 2.08333 20.6023C2.08304 21.4169 2.40082 22.1994 2.96897 22.7831C3.53711 23.3668 4.31072 23.7056 5.125 23.7273H5.72916C9.14243 23.7193 12.4928 22.8082 15.4401 21.0867C18.3874 19.3651 20.8268 16.8944 22.5104 13.9252C22.8993 13.2148 22.9971 12.3812 22.7834 11.6C22.5696 10.8189 22.061 10.1512 21.3646 9.73772H21.3542ZM6.25 5.73772L16.5521 11.6856C15.4092 13.3911 13.8812 14.8038 12.0917 15.8099C10.3021 16.816 8.30101 17.3872 6.25 17.4773V5.73772ZM20.6979 12.9044C19.1515 15.629 16.8931 17.8818 14.1646 19.4213C11.436 20.9608 8.34008 21.7291 5.20833 21.644C4.93206 21.644 4.66711 21.5342 4.47176 21.3389C4.27641 21.1435 4.16666 20.8786 4.16666 20.6023C4.16585 20.4627 4.19309 20.3244 4.24678 20.1956C4.30046 20.0667 4.37949 19.95 4.47916 19.8523C4.67486 19.6637 4.93653 19.559 5.20833 19.5606H5.73958C8.41429 19.5596 11.0407 18.8482 13.3504 17.4994C15.6601 16.1505 17.5702 14.2126 18.8854 11.8836C18.9486 11.7693 19.035 11.6695 19.1391 11.5906C19.2431 11.5116 19.3625 11.4553 19.4896 11.4252C19.7522 11.3531 20.0327 11.3868 20.2708 11.519C20.5098 11.6474 20.6893 11.8641 20.771 12.1228C20.8527 12.3816 20.8302 12.662 20.7083 12.9044H20.6979Z" fill="#989898"/>
</svg>
