<?xml version="1.0" encoding="UTF-8" standalone="no"?>
<svg
   width="32"
   height="32"
   viewBox="0 0 32 32"
   fill="none"
   version="1.1"
   id="svg2"
   sodipodi:docname="self_improvement.svg"
   inkscape:version="1.3.2 (091e20ef0f, 2023-11-25)"
   xmlns:inkscape="http://www.inkscape.org/namespaces/inkscape"
   xmlns:sodipodi="http://sodipodi.sourceforge.net/DTD/sodipodi-0.dtd"
   xmlns="http://www.w3.org/2000/svg"
   xmlns:svg="http://www.w3.org/2000/svg">
  <sodipodi:namedview
     id="namedview2"
     pagecolor="#ffffff"
     bordercolor="#000000"
     borderopacity="0.25"
     inkscape:showpageshadow="2"
     inkscape:pageopacity="0.0"
     inkscape:pagecheckerboard="0"
     inkscape:deskcolor="#d1d1d1"
     inkscape:zoom="22.3125"
     inkscape:cx="16"
     inkscape:cy="16"
     inkscape:window-width="1866"
     inkscape:window-height="1001"
     inkscape:window-x="0"
     inkscape:window-y="0"
     inkscape:window-maximized="1"
     inkscape:current-layer="svg2" />
  <g
     clip-path="url(#clip0_32_84)"
     id="g2"
     transform="matrix(1.1430906,0,0,1.1784235,-2.2894491,-2.8547794)">
    <path
       d="m 16,10.6667 c 1.4728,0 2.6667,-1.19393 2.6667,-2.66669 0,-1.47276 -1.1939,-2.66667 -2.6667,-2.66667 -1.4728,0 -2.6667,1.19391 -2.6667,2.66667 0,1.47276 1.1939,2.66669 2.6667,2.66669 z"
       fill="#ad6666"
       id="path1" />
    <path
       d="m 28,21.3333 v -2.6666 c -2.9867,0 -5.5467,-1.28 -7.4667,-3.5734 L 18.7467,12.96 C 18.24,12.3467 17.4933,12 16.7067,12 h -1.4 c -0.7867,0 -1.5334,0.3467 -2.04,0.96 L 11.48,15.0933 C 9.54667,17.3867 6.98667,18.6667 4,18.6667 v 2.6666 c 3.69333,0 6.92,-1.56 9.3333,-4.3333 v 3 L 8.16,22.0667 c -0.89333,0.36 -1.49333,1.24 -1.49333,2.2133 0,1.32 1.06666,2.3867 2.38666,2.3867 H 12 V 26 c 0,-1.84 1.4933,-3.3333 3.3333,-3.3333 h 4 C 19.7067,22.6667 20,22.96 20,23.3333 20,23.7067 19.7067,24 19.3333,24 h -4 c -1.1066,0 -2,0.8933 -2,2 v 0.6667 h 9.6134 c 1.32,0 2.3866,-1.0667 2.3866,-2.3867 0,-0.9733 -0.6,-1.8533 -1.4933,-2.2133 L 18.6667,20 v -3 c 2.4133,2.7733 5.64,4.3333 9.3333,4.3333 z"
       fill="#ad6666"
       id="path2" />
  </g>
  <defs
     id="defs2">
    <clipPath
       id="clip0_32_84">
      <rect
         width="32"
         height="32"
         fill="white"
         id="rect2" />
    </clipPath>
  </defs>
</svg>
